<?xml version="1.0" standalone="no"?><!-- Generator: Gravit.io --><svg xmlns="http://www.w3.org/2000/svg" xmlns:xlink="http://www.w3.org/1999/xlink" style="isolation:isolate" viewBox="-0.896 0 300.896 300" width="300.896" height="300"><g id="null"><g id="null"><g id="null"><linearGradient id="_lgradient_0" x1="24.431563052147126%" y1="10.227426629726107%" x2="93.98299868892428%" y2="113.88465464638332%"><stop offset="0%" stop-opacity="1" style="stop-color:rgb(24,135,191)"/><stop offset="83.91304347826087%" stop-opacity="1" style="stop-color:rgb(1,1,251)"/></linearGradient><path d=" M 218.42 291.638 L 257.816 223.795 L 297.211 155.951 L 263.001 84.844 L 228.791 13.737 L 155.185 10.474 L 81.58 7.211 L 42.184 75.055 L 2.789 142.899 L 36.999 214.006 L 71.209 285.113 L 144.815 288.375 L 216.697 291.562 L 217.242 292.789 L 218.42 291.638 Z " fill="url(#_lgradient_0)"/><line x1="228.791" y1="13.737" x2="136.751" y2="147.304" vector-effect="non-scaling-stroke" stroke-width="7.141" stroke="rgb(255,255,255)" stroke-linejoin="miter" stroke-linecap="square" stroke-miterlimit="3"/><line x1="2.789" y1="142.899" x2="136.751" y2="147.304" vector-effect="non-scaling-stroke" stroke-width="7.141" stroke="rgb(255,255,255)" stroke-linejoin="miter" stroke-linecap="square" stroke-miterlimit="3"/><line x1="218.42" y1="291.638" x2="137.014" y2="147.77" vector-effect="non-scaling-stroke" stroke-width="7.141" stroke="rgb(255,255,255)" stroke-linejoin="miter" stroke-linecap="square" stroke-miterlimit="3"/></g><path d=" M 97.749 178.365 C 92.095 165.165 90.844 150.229 94.21 136.131 C 92 134.63 90.372 132.297 89.635 129.575 C 84.337 146.486 85.28 164.98 92.264 181.148 L 96.687 191.451 C 95.655 187.417 96.233 183.095 98.28 179.55 L 97.749 178.365 L 97.749 178.365 Z  M 209.827 131.173 C 208.943 133.239 207.553 134.947 205.808 136.131 C 209.044 149.769 208.134 164.645 202.27 178.365 L 201.764 179.522 C 203.761 182.966 204.418 187.236 203.407 191.313 L 207.755 181.148 C 214.714 164.973 215.656 146.49 210.384 129.575 C 210.232 130.126 210.055 130.677 209.827 131.173 L 209.827 131.173 Z  M 105.433 177.18 L 105.357 176.988 L 105.332 176.988 C 100.022 179.69 97.725 186.571 100.201 192.36 L 107.278 208.89 C 108.457 211.679 110.616 213.834 113.269 214.868 C 115.923 215.915 118.83 215.778 121.383 214.483 L 121.408 214.483 L 117.895 206.3 L 105.433 177.18 L 105.433 177.18 Z  M 117.819 170.872 C 116.937 168.832 115.059 167.525 112.991 167.511 C 111.173 167.519 109.483 168.535 108.507 170.207 C 107.531 171.878 107.401 173.976 108.163 175.775 L 124.062 212.912 C 124.669 214.317 125.731 215.392 127.07 215.915 C 128.41 216.439 129.851 216.384 131.14 215.722 C 132.429 215.061 133.415 213.904 133.895 212.444 C 134.375 210.984 134.325 209.414 133.718 208.009 L 117.819 170.872 L 117.819 170.872 Z  M 194.712 176.988 L 178.636 214.51 L 178.661 214.51 C 181.239 215.805 184.121 215.943 186.775 214.896 C 189.423 213.853 191.579 211.701 192.765 208.918 L 199.843 192.388 C 202.32 186.602 200.02 179.687 194.712 176.988 L 194.712 176.988 Z  M 189.302 168.062 C 188.569 167.703 187.811 167.511 187.053 167.511 C 185.056 167.511 183.135 168.75 182.225 170.872 L 166.326 208.009 C 165.087 210.901 166.25 214.373 168.904 215.722 C 170.193 216.384 171.634 216.439 172.973 215.915 C 174.313 215.392 175.375 214.317 175.981 212.912 L 191.881 175.775 C 193.094 172.883 191.957 169.411 189.302 168.062 L 189.302 168.062 Z  M 149.997 83.732 C 124.998 83.732 103.537 100.207 94.235 123.734 C 93.563 125.459 93.595 127.414 94.323 129.111 C 95.051 130.809 96.407 132.089 98.052 132.633 C 101.002 133.624 104.163 132.032 105.383 128.941 C 112.814 110.125 130.002 96.956 149.997 96.956 C 169.991 96.956 187.154 110.125 194.611 128.941 C 195.842 132.019 198.992 133.605 201.941 132.633 C 205.379 131.476 207.199 127.343 205.758 123.734 C 196.481 100.207 175.021 83.732 149.997 83.732 L 149.997 83.732 Z " fill="rgb(6,6,79)"/></g><path d=" M 231.545 181.992 L 231.545 169.066 L 255.592 153.867 L 231.545 136.722 L 231.545 123.741 L 266.455 150.568 L 266.455 158.302 L 231.545 181.992 Z " fill="rgb(6,6,79)"/><path d=" M 67.577 169.066 L 67.577 181.992 L 30.287 158.302 L 30.287 150.568 L 67.577 123.741 L 67.577 136.722 L 41.891 153.867 L 67.577 169.066 Z " fill="rgb(6,6,79)"/></g></svg>