<?xml version="1.0" standalone="no"?><!-- Generator: Gravit.io --><svg xmlns="http://www.w3.org/2000/svg" xmlns:xlink="http://www.w3.org/1999/xlink" style="isolation:isolate" viewBox="0 0 32 32" width="32" height="32"><g id="null"><linearGradient id="_lgradient_0" x1="24.431563052147126%" y1="10.227426629726107%" x2="93.98299868892428%" y2="113.88465464638332%"><stop offset="0%" stop-opacity="1" style="stop-color:rgb(24,135,191)"/><stop offset="83.91304347826087%" stop-opacity="1" style="stop-color:rgb(1,1,251)"/></linearGradient><path d=" M 21.002 25.5 L 23.882 20.95 L 26.761 16.399 L 24.261 11.63 L 21.76 6.861 L 16.379 6.642 L 10.998 6.423 L 8.118 10.973 L 5.239 15.524 L 7.739 20.293 L 10.24 25.062 L 15.621 25.281 L 20.876 25.495 L 20.916 25.577 L 21.002 25.5 Z " fill="url(#_lgradient_0)"/><line x1="21.76" y1="6.861" x2="15.031" y2="15.819" vector-effect="non-scaling-stroke" stroke-width="0.5" stroke="rgb(255,255,255)" stroke-linejoin="miter" stroke-linecap="square" stroke-miterlimit="3"/><line x1="5.239" y1="15.524" x2="15.031" y2="15.819" vector-effect="non-scaling-stroke" stroke-width="0.5" stroke="rgb(255,255,255)" stroke-linejoin="miter" stroke-linecap="square" stroke-miterlimit="3"/><line x1="21.002" y1="25.5" x2="15.051" y2="15.85" vector-effect="non-scaling-stroke" stroke-width="0.5" stroke="rgb(255,255,255)" stroke-linejoin="miter" stroke-linecap="square" stroke-miterlimit="3"/></g><path d=" M 12.18 17.903 C 11.767 17.017 11.676 16.015 11.922 15.07 C 11.76 14.969 11.641 14.813 11.587 14.63 C 11.2 15.764 11.269 17.005 11.779 18.089 L 12.103 18.78 C 12.027 18.51 12.07 18.22 12.219 17.982 L 12.18 17.903 L 12.18 17.903 Z  M 20.374 14.737 C 20.309 14.876 20.207 14.99 20.08 15.07 C 20.316 15.984 20.25 16.982 19.821 17.903 L 19.784 17.98 C 19.93 18.211 19.978 18.497 19.904 18.771 L 20.222 18.089 C 20.731 17.004 20.8 15.765 20.414 14.63 C 20.403 14.667 20.39 14.704 20.374 14.737 L 20.374 14.737 Z  M 12.742 17.823 L 12.737 17.81 L 12.735 17.81 C 12.346 17.991 12.179 18.453 12.36 18.841 L 12.877 19.95 C 12.963 20.137 13.121 20.281 13.315 20.351 C 13.509 20.421 13.721 20.412 13.908 20.325 L 13.91 20.325 L 13.653 19.776 L 12.742 17.823 L 12.742 17.823 Z  M 13.647 17.4 C 13.583 17.263 13.446 17.175 13.295 17.174 C 13.162 17.175 13.038 17.243 12.967 17.355 C 12.895 17.467 12.886 17.608 12.942 17.729 L 14.104 20.22 C 14.148 20.314 14.226 20.386 14.324 20.421 C 14.422 20.456 14.527 20.452 14.621 20.408 C 14.716 20.364 14.788 20.286 14.823 20.188 C 14.858 20.09 14.854 19.985 14.81 19.891 L 13.647 17.4 L 13.647 17.4 Z  M 19.269 17.81 L 18.093 20.327 L 18.095 20.327 C 18.284 20.414 18.494 20.423 18.688 20.353 C 18.882 20.283 19.04 20.138 19.126 19.952 L 19.644 18.843 C 19.825 18.455 19.657 17.991 19.269 17.81 L 19.269 17.81 Z  M 18.873 17.211 C 18.82 17.187 18.764 17.174 18.709 17.174 C 18.563 17.174 18.422 17.258 18.356 17.4 L 17.193 19.891 C 17.103 20.085 17.188 20.318 17.382 20.408 C 17.476 20.452 17.581 20.456 17.679 20.421 C 17.777 20.386 17.855 20.314 17.899 20.22 L 19.062 17.729 C 19.15 17.535 19.067 17.302 18.873 17.211 L 18.873 17.211 Z  M 16 11.555 C 14.172 11.555 12.603 12.66 11.923 14.238 C 11.874 14.354 11.877 14.485 11.93 14.599 C 11.983 14.713 12.082 14.799 12.203 14.835 C 12.418 14.902 12.649 14.795 12.738 14.588 C 13.282 13.325 14.538 12.442 16 12.442 C 17.461 12.442 18.716 13.325 19.261 14.588 C 19.351 14.794 19.581 14.9 19.797 14.835 C 20.048 14.758 20.181 14.48 20.076 14.238 C 19.398 12.66 17.829 11.555 16 11.555 L 16 11.555 Z " fill="rgb(6,6,79)"/></svg>